<?xml version="1.0" encoding="utf-8"?>
<!-- Generator: Adobe Illustrator 26.0.1, SVG Export Plug-In . SVG Version: 6.00 Build 0)  -->
<svg version="1.1" id="Capa_1" xmlns="http://www.w3.org/2000/svg" xmlns:xlink="http://www.w3.org/1999/xlink" x="0px" y="0px"
	 viewBox="0 0 20 20" style="enable-background:new 0 0 20 20;" xml:space="preserve">
<style type="text/css">
	.st0{fill:#FFFFFF;}
</style>
<path class="st0" d="M3.9,15.1c0.9-0.7,1.8-1.2,2.9-1.5S8.9,13,10,13s2.2,0.2,3.3,0.6s2,0.9,2.8,1.5c0.6-0.7,1-1.5,1.4-2.3
	C17.8,11.9,18,11,18,10c0-2.2-0.8-4.1-2.3-5.7S12.2,2,10,2S5.9,2.8,4.3,4.3S2,7.8,2,10c0,1,0.2,1.9,0.5,2.8
	C2.8,13.6,3.3,14.4,3.9,15.1z M10,11c-1,0-1.8-0.3-2.5-1s-1-1.5-1-2.5s0.3-1.8,1-2.5S9,4,10,4s1.8,0.3,2.5,1s1,1.5,1,2.5
	s-0.3,1.8-1,2.5S11,11,10,11z M10,20c-1.4,0-2.7-0.3-3.9-0.8c-1.2-0.5-2.3-1.2-3.2-2.1s-1.6-2-2.1-3.2S0,11.4,0,10
	c0-1.4,0.3-2.7,0.8-3.9S2,3.8,2.9,2.9s2-1.6,3.2-2.1S8.6,0,10,0s2.7,0.3,3.9,0.8s2.3,1.2,3.2,2.1s1.6,2,2.1,3.2
	C19.7,7.3,20,8.6,20,10c0,1.4-0.3,2.7-0.8,3.9c-0.5,1.2-1.2,2.3-2.1,3.2s-2,1.6-3.2,2.1C12.7,19.7,11.4,20,10,20z M10,18
	c0.9,0,1.7-0.1,2.5-0.4s1.5-0.6,2.2-1.1c-0.7-0.5-1.4-0.9-2.2-1.1S10.9,15,10,15s-1.7,0.1-2.5,0.4S6,16,5.3,16.5
	C6,17,6.7,17.4,7.5,17.6S9.1,18,10,18z M10,9c0.4,0,0.8-0.1,1.1-0.4s0.4-0.6,0.4-1.1s-0.1-0.8-0.4-1.1S10.4,6,10,6S9.2,6.1,8.9,6.4
	S8.5,7.1,8.5,7.5s0.1,0.8,0.4,1.1S9.6,9,10,9z"/>
</svg>
