<?xml version="1.0" encoding="utf-8"?>
<!-- Generator: Adobe Illustrator 26.0.1, SVG Export Plug-In . SVG Version: 6.00 Build 0)  -->
<svg version="1.1" id="Capa_1" xmlns="http://www.w3.org/2000/svg" xmlns:xlink="http://www.w3.org/1999/xlink" x="0px" y="0px"
	 viewBox="0 0 20 22" style="enable-background:new 0 0 20 22;" xml:space="preserve">
<style type="text/css">
	.st0{fill:#01539B;}
</style>
<path class="st0" d="M2,22v-2h16v2H2z M2,2V0h16v2H2z M10,12c0.8,0,1.5-0.3,2.1-0.9C12.7,10.5,13,9.8,13,9s-0.3-1.5-0.9-2.1
	S10.8,6,10,6S8.5,6.3,7.9,6.9S7,8.2,7,9s0.3,1.5,0.9,2.1C8.5,11.7,9.2,12,10,12z M2,19c-0.5,0-1-0.2-1.4-0.6S0,17.6,0,17V5
	c0-0.5,0.2-1,0.6-1.4S1.5,3,2,3h16c0.6,0,1,0.2,1.4,0.6S20,4.5,20,5v12c0,0.6-0.2,1-0.6,1.4S18.6,19,18,19H2z M3.8,17
	c0.8-0.9,1.7-1.7,2.7-2.2S8.7,14,10,14s2.5,0.3,3.5,0.8s2,1.3,2.7,2.2H18V5H2v12H3.8z M6.7,17h6.6c-0.5-0.3-1-0.6-1.6-0.8
	S10.6,16,10,16c-0.6,0-1.2,0.1-1.7,0.2C7.7,16.4,7.2,16.7,6.7,17z M10,10c-0.3,0-0.5-0.1-0.7-0.3C9.1,9.5,9,9.3,9,9s0.1-0.5,0.3-0.7
	C9.5,8.1,9.7,8,10,8s0.5,0.1,0.7,0.3C10.9,8.5,11,8.7,11,9s-0.1,0.5-0.3,0.7C10.5,9.9,10.3,10,10,10z"/>
</svg>
