<?xml version="1.0" encoding="UTF-8" standalone="no"?>
<!-- Uploaded to: SVG Repo, www.svgrepo.com, Generator: SVG Repo Mixer Tools -->

<svg
   width="40px"
   height="40px"
   viewBox="0 0 91 91"
   enable-background="new 0 0 91 91"
   id="Layer_1"
   version="1.1"
   xml:space="preserve"
   sodipodi:docname="pencil-edit-office-2-svgrepo-com-copia.svg"
   inkscape:version="1.3.2 (091e20ef0f, 2023-11-25)"
   xmlns:inkscape="http://www.inkscape.org/namespaces/inkscape"
   xmlns:sodipodi="http://sodipodi.sourceforge.net/DTD/sodipodi-0.dtd"
   xmlns="http://www.w3.org/2000/svg"
   xmlns:svg="http://www.w3.org/2000/svg"><defs
   id="defs3" /><sodipodi:namedview
   id="namedview3"
   pagecolor="#ffffff"
   bordercolor="#000000"
   borderopacity="0.25"
   inkscape:showpageshadow="2"
   inkscape:pageopacity="0.0"
   inkscape:pagecheckerboard="0"
   inkscape:deskcolor="#d1d1d1"
   inkscape:zoom="1.0325"
   inkscape:cx="427.11864"
   inkscape:cy="466.82809"
   inkscape:window-width="1920"
   inkscape:window-height="1022"
   inkscape:window-x="0"
   inkscape:window-y="0"
   inkscape:window-maximized="1"
   inkscape:current-layer="Layer_1" />



<path
   d="M79.585,89.554H3.461c-1.833,0-3.318-1.486-3.318-3.319V5.512c0-1.833,1.484-3.318,3.318-3.318h51.113   c1.835,0,3.317,1.485,3.317,3.318c0,1.832-1.482,3.318-3.317,3.318H6.779v74.086h72.806c2.592,0,4.701-2.108,4.701-4.701V36.588   c0-1.833,1.484-3.318,3.317-3.318c1.832,0,3.318,1.485,3.318,3.318v41.627C90.922,84.467,85.836,89.554,79.585,89.554z"
   fill="#647F94"
   id="path3" />

  
  
  
  
  
  
  
<g
   style="clip-rule:evenodd;fill-rule:evenodd;image-rendering:optimizeQuality;shape-rendering:geometricPrecision;text-rendering:geometricPrecision"
   id="g8"
   transform="matrix(0.14363887,0,0,0.13621417,8.9150486,25.457661)"><path
     fill="#f0915a"
     fill-rule="nonzero"
     d="M 10.329,126.733 C 23.709,110.504 37.581,95.88 51.837,82.905 110.159,29.819 176.976,1.481 246.089,0.057 c 68.885,-1.42 139.407,23.974 205.333,78.329 17.058,14.063 33.68,29.911 49.748,47.564 l 10.83,11.9 -9.262,13.113 C 484.414,176.907 463.6,198.869 440.997,216.911 388.624,258.722 326.752,279.346 264.004,279.698 201.576,280.049 138.476,260.274 83.272,221.286 56.747,202.555 32.034,179.386 10.093,151.904 L 0,139.262 Z"
     id="path1" /><path
     fill="#d7e6f0"
     d="m 23.627502,139.25702 c 127.449048,-154.093249 312.254528,-164.792236 462.721498,0 -116.27011,164.10621 -336.94924,157.05568 -462.721498,0 z"
     id="path2"
     style="stroke-width:1.00308" /><path
     fill="#0f4f78"
     fill-rule="nonzero"
     d="m 256.071,44.146 a 95.32,95.32 0 0 1 36.576,7.273 95.964,95.964 0 0 1 31.082,20.78 95.872,95.872 0 0 1 20.769,31.075 95.396,95.396 0 0 1 7.27,36.584 95.324,95.324 0 0 1 -7.27,36.56 l -0.008,0.02 a 95.715,95.715 0 0 1 -20.761,31.078 95.89,95.89 0 0 1 -31.075,20.77 l -0.32,0.122 a 95.336,95.336 0 0 1 -36.263,7.147 95.26,95.26 0 0 1 -36.554,-7.266 c -11.694,-4.847 -22.229,-11.96 -31.053,-20.773 a 95.801,95.801 0 0 1 -20.825,-31.059 95.302,95.302 0 0 1 -7.28,-36.599 c 0,-12.91 2.585,-25.26 7.27,-36.549 a 95.973,95.973 0 0 1 20.783,-31.067 96.174,96.174 0 0 1 31.094,-20.821 95.15,95.15 0 0 1 36.565,-7.275 z"
     id="path3-3" /><path
     fill="#2387c3"
     fill-rule="nonzero"
     d="m 256.07,52.323 c 24.128,0 46.047,9.826 61.877,25.657 15.831,15.83 25.643,37.749 25.643,61.877 0,24.128 -9.812,46.047 -25.643,61.877 -15.83,15.831 -37.749,25.643 -61.877,25.643 -24.128,0 -46.004,-9.812 -61.849,-25.643 -15.872,-15.83 -25.685,-37.749 -25.685,-61.877 0,-24.1 9.798,-45.976 25.657,-61.835 15.915,-15.915 37.778,-25.699 61.877,-25.699 z"
     id="path4" /><path
     fill="#207ab0"
     fill-rule="nonzero"
     d="m 327.584,135.594 a 6.169,6.169 0 0 1 0,12.337 h -10.751 a 6.17,6.17 0 0 1 0,-12.337 z M 202.482,92.287 a 6.168,6.168 0 0 1 8.723,-8.722 l 7.601,7.601 a 6.17,6.17 0 0 1 0,8.723 6.17,6.17 0 0 1 -8.722,0 z m 101.143,-6.018 a 6.17,6.17 0 0 1 8.723,0 6.171,6.171 0 0 1 0,8.723 l -7.6,7.599 a 6.168,6.168 0 0 1 -8.722,-8.722 z M 251.807,68.33 a 6.17,6.17 0 0 1 12.337,0 v 10.751 a 6.169,6.169 0 0 1 -12.337,0 V 68.33 Z m -67.264,75.777 a 6.169,6.169 0 0 1 0,-12.337 h 10.751 a 6.17,6.17 0 0 1 0,12.337 z m 23.959,49.301 a 6.153,6.153 0 0 1 -8.698,0.024 6.152,6.152 0 0 1 -0.024,-8.698 l 7.599,-7.602 a 6.153,6.153 0 0 1 8.698,-0.024 6.153,6.153 0 0 1 0.025,8.698 z m 51.818,17.961 a 6.169,6.169 0 1 1 -12.336,0 V 200.62 a 6.169,6.169 0 0 1 12.336,0 z m 49.301,-23.957 a 6.153,6.153 0 0 1 0.024,8.698 6.153,6.153 0 0 1 -8.698,0.025 l -7.602,-7.6 a 6.153,6.153 0 0 1 -0.024,-8.698 6.153,6.153 0 0 1 8.698,-0.025 z"
     id="path5" /><path
     fill="#555a6e"
     fill-rule="nonzero"
     d="m 256.067,98.619 c 11.366,0 21.691,4.63 29.148,12.087 7.457,7.457 12.08,17.782 12.08,29.148 0,11.366 -4.623,21.692 -12.08,29.149 -7.457,7.457 -17.782,12.079 -29.148,12.079 -11.366,0 -21.672,-4.622 -29.135,-12.079 -7.478,-7.457 -12.1,-17.783 -12.1,-29.149 0,-11.352 4.616,-21.658 12.086,-29.128 7.498,-7.497 17.796,-12.107 29.149,-12.107 z"
     id="path6" /><path
     fill="#ffffff"
     d="m 276.417,103.138 c 8.775,0 15.888,7.113 15.888,15.888 0,8.776 -7.113,15.889 -15.888,15.889 -8.775,0 -15.889,-7.113 -15.889,-15.889 0,-8.775 7.114,-15.888 15.889,-15.888 z"
     id="path7" /></g></svg>
