<?xml version="1.0" encoding="utf-8"?>
<!-- Generator: Adobe Illustrator 26.0.1, SVG Export Plug-In . SVG Version: 6.00 Build 0)  -->
<svg version="1.1" id="Capa_1" xmlns="http://www.w3.org/2000/svg" xmlns:xlink="http://www.w3.org/1999/xlink" x="0px" y="0px"
	 viewBox="0 0 22 19.8" style="enable-background:new 0 0 22 19.8;" xml:space="preserve">
<path d="M15.1,10.5l-1.4-1.4c0.1-0.8-0.1-1.5-0.7-2.2c-0.6-0.7-1.4-0.9-2.3-0.8L9.2,4.6c0.3-0.1,0.6-0.2,0.9-0.3
	c0.3-0.1,0.6-0.1,0.9-0.1c1.2,0,2.3,0.4,3.2,1.3s1.3,1.9,1.3,3.2c0,0.3,0,0.6-0.1,0.9C15.3,9.9,15.2,10.2,15.1,10.5z M18.3,13.7
	l-1.5-1.4c0.6-0.5,1.2-1,1.7-1.6s0.9-1.2,1.3-2c-0.8-1.7-2-3-3.6-4c-1.6-1-3.3-1.5-5.2-1.5c-0.5,0-1,0-1.4,0.1
	C9.1,3.4,8.7,3.5,8.2,3.6L6.7,2C7.3,1.8,8,1.6,8.8,1.4s1.5-0.2,2.2-0.2c2.5,0,4.8,0.7,6.7,2.1s3.4,3.2,4.3,5.4
	c-0.4,1-0.9,1.9-1.5,2.7S19.1,13,18.3,13.7z M18.8,19.8l-4.2-4.2c-0.6,0.2-1.2,0.3-1.8,0.4c-0.6,0.1-1.2,0.1-1.8,0.1
	c-2.5,0-4.8-0.7-6.7-2.1S0.9,10.9,0,8.7C0.3,7.8,0.8,7,1.3,6.2s1.1-1.4,1.8-2L0.4,1.4L1.8,0l18.4,18.4L18.8,19.8z M4.6,5.6
	C4.1,6,3.6,6.5,3.2,7s-0.7,1.1-1,1.7c0.8,1.7,2,3,3.6,4s3.3,1.5,5.2,1.5c0.3,0,0.7,0,1-0.1c0.3,0,0.6-0.1,1-0.1l-0.9-0.9
	c-0.2,0.1-0.4,0.1-0.5,0.1c-0.2,0-0.3,0-0.5,0c-1.2,0-2.3-0.4-3.2-1.3S6.5,9.9,6.5,8.7c0-0.2,0-0.4,0-0.5c0-0.2,0.1-0.3,0.1-0.5
	L4.6,5.6z"/>
</svg>
